# xmcd CD database file
#
# Track frame offsets:
#	150
#	10191
#	21106
#	37297
#	52112
#	68036
#	86584
#	99789
#	111806
#	121973
#	133269
#	143824
#	156254
#	164955
#	175933
#
# Disc length: 2521 seconds
#
# Revision: 4
# Processed by: cddbd v1.5.1PL2 Copyright (c) Steve Scherf et al.
# Submitted via: CDex 1.51
#
DISCID=d309d70f
DTITLE=John Lee Hooker - The Great John Lee Hooker Disc 2
DYEAR=1999
DGENRE=Blues
TTITLE0=Dimples
TTITLE1=Maudie
TTITLE2=My First Wife Left Me
TTITLE3=Moanin' Blues
TTITLE4=Dirty Ground Hog
TTITLE5=Tupelo
TTITLE6=I'm Going Upstairs
TTITLE7=I'm Mad Again
TTITLE8=Want Ad Blues
TTITLE9=What Do You Say
TTITLE10=She's Mine
TTITLE11=Drug Store Woman
TTITLE12=You Know I Love You
TTITLE13=Send Me Your Pillow
TTITLE14=Don't Look Back
EXTD=YEAR: 1999
EXTT0=
EXTT1=
EXTT2=
EXTT3=
EXTT4=
EXTT5=
EXTT6=
EXTT7=
EXTT8=
EXTT9=
EXTT10=
EXTT11=
EXTT12=
EXTT13=
EXTT14=
PLAYORDER=
